{"glyphs":{"0":{"ha":972,"x_min":43,"x_max":903,"o":"m 903 208 q 827 38 903 83 q 500 -7 751 -7 q 399 -8 463 -7 q 308 -10 335 -10 q 106 28 168 -10 q 43 192 43 67 q 76 585 43 386 q 189 927 108 783 q 400 1071 269 1071 l 536 1072 q 741 914 658 1072 q 863 547 824 756 q 903 208 903 338 m 542 593 q 519 747 542 667 q 460 826 496 826 q 410 748 428 826 q 392 597 392 669 q 413 525 392 550 q 465 500 435 500 q 519 524 496 500 q 542 593 542 549 z "},"1":{"ha":625,"x_min":29,"x_max":533,"o":"m 308 0 q 127 22 188 0 q 67 129 67 44 q 107 437 67 219 q 147 713 147 654 q 88 783 147 768 q 29 826 29 799 q 148 1014 29 925 q 321 1103 267 1103 q 438 911 390 1103 q 509 489 485 719 q 533 175 533 258 q 494 38 533 75 q 308 0 456 0 z "},"2":{"ha":819,"x_min":36,"x_max":757,"o":"m 757 239 q 694 41 757 92 q 417 -10 632 -10 q 94 24 151 -10 q 36 208 36 57 q 115 499 36 419 q 326 639 193 578 q 458 768 458 700 q 441 819 458 800 q 397 838 424 838 q 313 770 357 838 q 236 703 268 703 q 175 728 197 703 q 153 794 153 753 q 214 1002 153 929 q 431 1075 275 1075 q 653 1017 589 1075 q 718 825 718 960 q 665 665 718 704 q 504 578 613 625 q 396 476 396 532 q 417 444 396 450 q 478 438 439 438 q 578 494 543 438 q 631 551 613 551 q 725 453 693 551 q 757 239 757 354 z "},"3":{"ha":833,"x_min":36,"x_max":764,"o":"m 411 -12 l 333 -12 q 108 31 181 -12 q 36 229 36 74 q 74 426 36 339 q 175 513 111 513 q 263 466 204 513 q 353 419 322 419 q 409 438 381 422 q 438 479 438 454 q 343 558 438 556 q 249 617 249 561 q 361 743 249 731 q 474 825 474 756 q 451 871 474 856 q 403 886 428 886 q 296 810 343 886 q 193 735 249 735 q 140 763 158 735 q 121 831 121 790 q 195 1016 121 951 q 400 1081 269 1081 q 610 1010 539 1081 q 681 817 681 939 q 649 710 681 749 q 578 649 613 679 q 707 520 650 608 q 764 300 764 432 q 702 49 764 111 q 411 -12 640 -12 z "},"4":{"ha":889,"x_min":40,"x_max":844,"o":"m 654 413 q 668 278 654 365 q 682 161 682 192 q 635 13 682 40 q 400 -15 589 -15 q 258 11 314 -15 q 203 108 203 38 q 241 239 203 147 q 279 374 279 331 q 160 425 279 417 q 40 556 40 433 q 122 731 40 603 q 304 970 204 860 q 451 1081 404 1081 q 585 1002 561 1081 q 610 742 610 924 q 727 668 610 692 q 844 544 844 644 q 822 475 844 492 q 756 458 799 458 q 713 460 726 460 q 668 451 682 460 q 654 413 654 443 m 413 822 q 353 764 389 822 q 318 685 318 706 q 331 661 318 669 q 361 653 343 653 q 402 668 386 653 q 418 719 418 683 q 419 763 418 736 q 421 797 421 790 q 413 822 421 822 z "},"5":{"ha":844,"x_min":39,"x_max":806,"o":"m 525 -26 q 251 -18 340 -26 q 101 33 163 -10 q 39 171 39 75 q 74 390 39 299 q 217 482 110 482 q 348 435 304 482 q 432 388 392 388 q 466 422 461 388 q 471 483 471 456 q 451 556 471 524 q 396 588 431 588 q 351 560 361 590 q 218 529 340 529 q 154 544 182 529 q 126 594 126 560 q 159 797 126 694 q 215 967 192 899 q 274 1050 239 1035 q 358 1065 308 1065 q 488 1062 396 1065 q 588 1058 579 1058 q 672 1038 649 1058 q 696 958 696 1017 q 677 904 696 918 q 621 890 658 890 q 587 892 611 890 q 550 893 563 893 q 472 874 506 893 q 439 808 439 854 q 516 730 439 739 q 658 685 593 721 q 764 536 722 650 q 806 271 806 422 q 745 51 806 128 q 525 -26 685 -26 z "},"6":{"ha":889,"x_min":39,"x_max":818,"o":"m 454 -25 q 131 64 222 -25 q 39 321 39 153 q 158 840 39 610 q 475 1071 276 1071 q 650 1004 588 1071 q 713 833 713 938 q 696 765 713 794 q 638 736 679 736 q 567 790 606 736 q 500 843 528 843 q 427 799 463 843 q 392 704 392 756 q 410 647 392 647 q 477 674 443 661 q 542 686 511 686 q 751 573 683 686 q 818 300 818 460 q 748 62 818 149 q 454 -25 678 -25 m 525 457 q 515 514 525 490 q 485 538 506 538 q 424 513 450 538 q 399 454 399 489 q 420 412 399 431 q 471 393 442 393 q 510 413 494 393 q 525 457 525 432 z "},"7":{"ha":736,"x_min":33,"x_max":690,"o":"m 690 865 q 622 688 690 836 q 553 461 553 540 q 560 256 553 397 q 567 47 567 115 q 489 -28 567 -18 q 347 -39 411 -39 q 97 -6 161 -39 q 33 139 33 28 q 81 347 33 272 q 253 578 129 421 q 378 808 378 735 q 340 829 378 829 q 287 826 326 829 q 240 824 247 824 q 153 847 186 824 q 121 933 121 869 q 151 1017 121 983 q 236 1051 181 1051 q 367 1055 289 1051 q 456 1058 446 1058 q 632 1020 574 1058 q 690 865 690 982 z "},"8":{"ha":889,"x_min":40,"x_max":847,"o":"m 504 -35 q 137 17 233 -35 q 40 225 40 68 q 101 499 40 399 q 236 640 168 569 q 193 694 236 650 q 150 832 150 739 q 238 992 150 929 q 433 1056 325 1056 q 651 983 564 1056 q 739 796 739 911 q 699 677 739 699 q 658 635 658 656 q 790 489 732 588 q 847 217 847 390 q 772 26 847 86 q 504 -35 697 -35 m 506 819 q 490 873 506 851 q 447 894 475 894 q 403 874 419 894 q 386 821 386 853 q 400 772 386 792 q 443 753 414 753 q 494 769 482 753 q 506 819 506 786 m 508 478 q 493 534 508 511 q 444 557 478 557 q 393 533 411 557 q 375 471 375 510 q 395 431 375 446 q 444 417 415 417 q 508 478 508 417 z "},"9":{"ha":875,"x_min":39,"x_max":804,"o":"m 804 351 q 717 62 804 156 q 383 -32 629 -32 q 124 35 210 -32 q 39 254 39 103 q 67 422 39 353 q 167 490 96 490 q 233 456 196 490 q 332 421 271 421 q 444 443 397 421 q 492 507 492 465 q 458 533 492 533 q 407 527 442 533 q 364 521 372 521 q 185 579 254 521 q 117 754 117 638 q 194 966 117 883 q 404 1049 271 1049 q 462 1046 431 1049 q 576 1033 493 1043 q 732 823 660 1022 q 804 351 804 624 m 424 871 q 365 844 386 871 q 343 779 343 818 q 364 731 343 753 q 414 708 385 708 q 476 729 457 708 q 496 788 496 750 q 479 848 496 825 q 424 871 463 871 z "},"×":{"ha":0,"x_min":0,"x_max":0,"o":""}," ":{"ha":417,"x_min":0,"x_max":0,"o":""},"!":{"ha":583,"x_min":35,"x_max":528,"o":"m 471 581 q 441 481 471 506 q 292 456 411 456 q 149 484 186 456 q 113 586 113 513 q 165 903 113 704 q 272 1101 218 1101 l 321 1101 q 420 902 369 1101 q 471 581 471 703 m 528 92 q 479 19 528 38 q 347 1 431 1 q 301 1 324 1 q 258 3 279 1 q 228 2 243 3 q 199 1 214 1 q 67 25 100 1 q 35 94 35 49 q 67 294 35 190 q 176 399 100 399 l 401 399 q 492 301 457 399 q 528 92 528 203 z "},"\"":{"ha":806,"x_min":42,"x_max":738,"o":"m 354 697 q 333 594 354 617 q 193 572 311 572 q 67 599 92 572 q 42 703 42 625 q 82 959 42 821 q 178 1097 122 1097 l 226 1097 q 315 957 276 1097 q 354 697 354 817 m 738 697 q 716 594 738 617 q 576 572 694 572 q 450 599 475 572 q 425 703 425 625 q 465 959 425 821 q 561 1097 506 1097 l 610 1097 q 699 957 660 1097 q 738 697 738 817 z "},"#":{"ha":1181,"x_min":29,"x_max":1158,"o":"m 457 324 l 407 122 q 353 20 383 43 q 207 -3 324 -3 q 107 10 133 -3 q 81 53 81 22 q 82 77 81 69 q 93 117 83 85 q 119 197 103 150 q 163 324 135 244 l 110 324 q 50 338 71 324 q 29 407 29 351 q 64 499 29 460 q 158 539 99 539 l 242 539 l 281 639 l 197 639 q 131 651 153 639 q 110 718 110 664 q 146 807 110 769 q 242 844 182 844 l 365 844 q 440 1003 406 939 q 501 1090 475 1068 q 544 1113 526 1113 q 574 1088 568 1113 q 581 1039 581 1063 q 577 969 581 1000 q 558 844 574 938 l 799 844 q 870 999 838 936 q 928 1087 903 1061 q 978 1113 954 1113 q 1008 1084 1004 1113 q 1013 1038 1013 1056 q 1007 956 1013 1003 q 992 844 1001 908 l 1022 844 q 1122 804 1086 844 q 1158 718 1158 764 q 1137 654 1158 669 q 1065 639 1115 639 l 956 639 l 936 539 l 1006 539 q 1103 497 1068 539 q 1139 407 1139 454 q 1120 340 1139 356 q 1053 324 1101 324 l 889 324 l 840 122 q 787 20 817 43 q 640 -3 757 -3 q 540 10 567 -3 q 514 53 514 22 q 515 77 514 69 q 527 119 517 85 q 553 199 538 154 q 596 324 568 244 l 457 324 m 522 639 l 503 539 l 675 539 l 714 639 l 522 639 z "},"$":{"ha":903,"x_min":63,"x_max":832,"o":"m 293 53 q 128 115 194 53 q 63 285 63 176 q 110 478 63 418 q 233 539 158 539 q 319 489 288 539 q 386 439 351 439 l 403 439 q 457 448 440 439 q 474 494 474 457 q 317 574 474 522 q 160 782 160 625 q 220 943 160 875 q 390 1022 281 1011 q 408 1072 399 1056 q 427 1099 417 1088 q 453 1111 438 1111 q 478 1103 469 1111 q 497 1072 486 1094 q 515 1017 508 1050 q 674 936 613 999 q 736 775 736 874 q 719 733 736 754 q 682 713 701 713 q 586 767 618 713 q 528 831 554 821 q 475 842 503 842 q 439 834 453 842 q 425 808 425 826 q 553 688 425 738 q 756 569 681 639 q 832 289 832 499 q 772 106 832 163 q 606 50 711 50 q 583 -47 606 -24 q 444 -69 560 -69 q 319 -45 344 -69 q 293 53 293 -21 z "},"%":{"ha":1167,"x_min":43,"x_max":1097,"o":"m 472 669 q 434 584 472 607 q 271 561 396 561 q 222 560 246 561 q 176 560 199 560 q 75 579 107 560 q 43 661 43 599 q 85 961 43 821 q 221 1101 126 1101 l 289 1101 q 424 945 376 1101 q 472 669 472 789 m 872 1081 q 810 851 872 1028 q 692 534 747 675 q 566 222 636 393 q 474 24 496 50 q 358 -3 453 -3 q 295 10 314 -3 q 276 47 276 22 q 284 88 276 67 q 317 170 292 110 q 445 444 342 231 q 651 848 549 658 q 781 1067 753 1038 q 824 1105 810 1097 q 850 1113 838 1113 q 872 1081 872 1113 m 1097 111 q 1059 26 1097 49 q 896 3 1021 3 q 847 2 871 3 q 801 1 824 1 q 700 21 732 1 q 668 103 668 40 q 710 403 668 263 q 846 543 751 543 l 914 543 q 1049 387 1001 543 q 1097 111 1097 231 m 292 863 q 281 940 292 901 q 251 979 269 979 q 226 940 235 979 q 217 864 217 901 q 227 828 217 842 q 253 815 238 815 q 292 863 292 815 m 917 304 q 906 382 917 343 q 876 421 894 421 q 851 382 860 421 q 842 306 842 343 q 852 270 842 283 q 878 257 863 257 q 917 304 917 257 z "},"&":{"ha":972,"x_min":44,"x_max":926,"o":"m 926 561 q 881 469 926 488 q 835 444 835 451 q 847 346 836 426 q 858 221 858 265 q 794 43 858 89 q 496 -3 731 -3 q 123 31 201 -3 q 44 217 44 65 q 97 532 44 429 q 190 662 150 635 q 231 700 231 689 q 215 733 231 713 q 199 813 199 754 q 267 1032 199 963 q 475 1101 336 1101 q 666 1038 583 1101 q 749 871 749 974 q 726 821 749 842 q 676 800 704 800 q 593 869 643 800 q 508 939 543 939 q 433 916 461 939 q 406 838 406 893 q 493 763 406 765 q 581 669 581 760 q 562 630 581 638 q 506 622 543 622 q 445 613 465 622 q 425 567 425 604 q 451 529 425 539 q 519 519 476 519 q 633 583 622 519 q 683 646 644 646 l 856 646 q 905 619 883 646 q 926 561 926 592 z "},"'":{"ha":417,"x_min":42,"x_max":354,"o":"m 354 697 q 333 594 354 617 q 193 572 311 572 q 67 599 92 572 q 42 703 42 625 q 82 959 42 821 q 178 1097 122 1097 l 226 1097 q 315 957 276 1097 q 354 697 354 817 z "},"(":{"ha":556,"x_min":50,"x_max":496,"o":"m 496 63 q 450 4 496 18 q 333 -10 404 -10 l 299 -10 q 99 38 149 -10 q 50 192 50 86 q 76 378 50 229 q 149 716 103 528 q 243 1018 194 904 q 354 1076 279 1076 q 446 1046 408 1076 q 483 963 483 1015 q 399 889 483 924 q 315 646 315 854 q 404 516 315 546 q 493 439 493 486 l 496 63 z "},")":{"ha":556,"x_min":57,"x_max":503,"o":"m 503 192 q 453 38 503 86 q 254 -10 404 -10 l 225 -10 q 103 3 149 -10 q 57 63 57 15 l 60 439 q 149 515 60 485 q 238 646 238 546 q 153 888 238 853 q 69 963 69 922 q 106 1047 69 1017 q 199 1076 143 1076 q 310 1018 274 1076 q 401 729 358 903 q 474 390 444 556 q 503 192 503 224 z "},"*":{"ha":528,"x_min":35,"x_max":483,"o":"m 279 796 q 294 739 282 758 q 318 701 306 719 q 324 667 324 686 q 307 617 324 638 q 258 596 290 596 q 207 615 224 596 q 190 663 190 635 q 197 701 190 681 q 222 742 214 728 q 236 789 231 756 q 192 748 204 765 q 159 706 179 731 q 100 682 139 682 q 46 717 63 682 q 35 751 35 733 q 56 795 35 776 q 106 819 78 814 q 139 819 125 821 q 167 815 153 817 q 190 819 178 815 q 218 829 203 822 q 187 842 199 839 q 163 846 175 846 q 133 844 146 844 q 109 848 125 844 q 74 869 93 851 q 56 910 56 886 q 69 950 56 926 q 115 974 82 974 q 169 951 151 974 q 197 910 188 929 q 236 868 206 890 q 220 924 231 904 q 202 961 210 944 q 194 996 194 978 q 211 1042 194 1022 q 257 1061 228 1061 q 303 1042 288 1061 q 319 999 319 1024 q 313 965 319 983 q 288 919 297 938 q 279 863 279 900 q 317 899 306 881 q 343 939 329 917 q 404 972 369 972 q 449 947 435 972 q 464 904 464 922 q 446 865 464 881 q 404 845 428 850 q 376 840 381 840 l 356 840 q 335 839 344 840 q 307 829 326 838 q 349 819 331 819 q 381 822 361 819 q 413 824 400 825 q 463 799 443 818 q 483 754 483 781 q 472 720 483 739 q 447 693 461 701 q 417 685 433 685 q 360 712 379 685 q 327 755 340 739 q 279 796 314 771 z "},"+":{"ha":778,"x_min":68,"x_max":718,"o":"m 492 668 l 550 668 q 673 613 628 668 q 718 494 718 557 q 691 408 718 429 q 603 386 664 386 l 535 386 l 538 331 q 516 228 538 250 q 376 206 494 206 q 250 232 275 206 q 225 336 225 258 l 226 386 l 175 386 q 95 403 122 386 q 68 494 68 421 q 113 616 68 564 q 231 668 157 668 l 274 668 q 314 781 292 739 q 361 822 336 822 l 410 822 q 453 781 432 822 q 492 668 474 739 z "},",":{"ha":583,"x_min":47,"x_max":524,"o":"m 524 21 q 476 -142 524 -96 q 339 -189 428 -189 l 314 -189 q 218 -180 251 -189 q 185 -133 185 -171 q 261 -85 185 -93 q 338 -54 338 -76 q 192 -3 338 -7 q 47 108 47 1 q 88 300 47 217 q 201 383 128 383 q 242 383 221 383 q 286 385 264 383 q 396 372 354 385 q 460 319 438 360 q 508 153 493 215 q 524 21 524 90 z "},"-":{"ha":694,"x_min":68,"x_max":601,"o":"m 601 494 q 574 408 601 429 q 486 386 547 386 l 175 386 q 95 403 122 386 q 68 494 68 421 q 113 616 68 564 q 231 668 157 668 l 433 668 q 556 613 511 668 q 601 494 601 557 z "},".":{"ha":583,"x_min":46,"x_max":521,"o":"m 521 131 q 480 19 521 39 q 278 0 439 0 l 225 0 q 87 19 128 0 q 46 111 46 39 q 99 345 46 299 q 281 392 153 392 q 465 351 410 392 q 521 131 521 311 z "},"/":{"ha":764,"x_min":32,"x_max":781,"o":"m 378 122 q 300 20 335 43 q 147 -3 265 -3 q 58 7 85 -3 q 32 39 32 17 q 40 72 32 54 q 79 149 47 89 q 243 425 111 210 q 511 841 375 640 q 692 1077 647 1042 q 757 1113 736 1113 q 781 1078 781 1113 q 704 833 781 1019 q 526 430 628 646 q 378 122 425 214 z "},":":{"ha":583,"x_min":46,"x_max":521,"o":"m 521 131 q 480 19 521 39 q 278 0 439 0 l 225 0 q 87 19 128 0 q 46 111 46 39 q 99 345 46 299 q 281 392 153 392 q 465 351 410 392 q 521 131 521 311 m 482 697 q 457 584 482 601 q 281 567 432 567 l 229 567 q 101 586 136 567 q 65 678 65 606 q 122 900 65 858 q 283 942 179 942 l 317 942 q 437 897 392 942 q 482 697 482 851 z "},";":{"ha":583,"x_min":47,"x_max":524,"o":"m 482 697 q 457 584 482 601 q 281 567 432 567 l 229 567 q 101 586 136 567 q 65 678 65 606 q 122 900 65 858 q 283 942 179 942 l 317 942 q 437 897 392 942 q 482 697 482 851 m 524 21 q 476 -142 524 -96 q 339 -189 428 -189 l 314 -189 q 218 -180 251 -189 q 185 -133 185 -171 q 261 -85 185 -93 q 338 -54 338 -76 q 192 -3 338 -7 q 47 108 47 1 q 88 300 47 217 q 201 383 128 383 q 242 383 221 383 q 286 385 264 383 q 396 372 354 385 q 460 319 438 360 q 508 153 493 215 q 524 21 524 90 z "},"=":{"ha":778,"x_min":68,"x_max":718,"o":"m 718 290 q 694 203 718 224 q 611 182 671 182 l 167 182 q 92 199 117 182 q 68 290 68 215 q 111 412 68 360 q 226 464 154 464 l 554 464 q 675 408 632 464 q 718 290 718 353 m 681 674 q 653 587 681 608 q 565 565 626 565 l 213 565 q 133 583 160 565 q 106 674 106 600 q 150 795 106 743 q 268 847 194 847 l 513 847 q 635 792 590 847 q 681 674 681 736 z "},"?":{"ha":746,"x_min":35,"x_max":686,"o":"m 686 703 q 660 585 686 631 q 569 540 635 540 l 517 540 q 441 530 468 540 q 414 488 414 519 q 394 443 414 456 q 343 431 375 431 q 308 432 332 431 q 272 433 283 433 q 133 449 175 433 q 90 522 90 464 q 128 672 90 607 q 247 736 167 736 q 324 751 289 736 q 360 796 360 767 l 360 815 q 353 899 360 865 q 319 933 346 933 q 258 866 292 933 q 158 799 224 799 q 103 825 121 799 q 85 886 85 851 q 148 1031 85 979 q 300 1082 211 1082 l 439 1082 q 623 973 560 1082 q 686 703 686 864 m 482 83 q 449 13 482 29 q 349 -3 417 -3 q 304 -2 326 -3 q 258 -1 282 -1 q 219 -1 239 -1 q 181 -3 200 -1 q 72 14 110 -3 q 35 86 35 31 q 67 286 35 182 q 176 390 100 390 l 356 390 q 447 292 411 390 q 482 83 482 194 z "},"A":{"ha":1069,"x_min":47,"x_max":994,"o":"m 994 150 q 933 20 994 46 q 758 -6 872 -6 q 605 18 651 -6 q 558 128 558 42 q 574 224 558 157 q 590 314 590 290 q 569 379 590 353 q 521 406 547 406 q 481 380 497 406 q 464 303 464 354 q 474 215 464 274 q 483 136 483 157 q 467 60 483 90 q 408 10 451 31 q 326 -6 364 -1 q 247 -11 289 -11 q 176 -6 211 -11 q 108 13 142 0 q 61 74 75 38 q 47 153 47 110 q 88 342 47 182 q 194 696 129 503 q 325 1001 260 889 q 400 1063 353 1043 q 508 1082 447 1082 q 631 1065 572 1082 q 741 974 690 1049 q 855 730 792 899 q 956 396 918 561 q 994 150 994 231 m 521 861 q 487 828 501 861 q 472 756 472 794 q 483 703 472 724 q 518 683 494 683 q 572 707 554 683 q 590 765 590 731 q 571 832 590 803 q 521 861 551 861 z "},"B":{"ha":1056,"x_min":47,"x_max":988,"o":"m 988 243 q 952 74 988 149 q 804 -1 917 -1 l 219 0 q 98 44 149 0 q 47 156 47 88 q 61 285 47 190 q 75 406 75 379 q 119 614 96 508 q 174 820 142 719 q 249 1007 206 921 q 342 1076 285 1058 q 489 1094 400 1094 q 754 1008 665 1094 q 843 792 843 922 q 814 713 843 740 q 749 664 781 688 q 915 507 842 615 q 988 243 988 399 m 500 924 q 463 891 475 924 q 450 819 450 858 q 464 774 450 790 q 508 757 478 757 q 560 777 546 757 q 574 833 574 797 q 553 896 574 868 q 500 924 532 924 m 600 501 q 573 585 600 544 q 514 626 546 626 q 461 578 468 626 q 454 489 454 529 q 479 455 454 468 q 528 442 504 442 q 581 459 563 442 q 600 501 600 476 z "},"C":{"ha":931,"x_min":42,"x_max":868,"o":"m 738 19 q 563 4 649 10 q 388 -1 478 -1 q 176 9 267 -1 q 64 71 86 19 q 42 219 42 122 q 83 531 42 357 q 163 867 124 706 q 242 1028 201 971 q 364 1086 283 1086 q 442 1085 403 1086 q 519 1085 481 1085 q 650 1025 592 1085 q 708 883 708 965 q 644 778 708 778 q 576 821 618 774 q 510 868 535 868 q 419 812 442 868 q 397 667 397 756 q 430 554 397 600 q 522 508 463 508 q 624 582 585 508 q 703 656 663 656 q 775 619 749 656 q 835 474 801 582 q 868 200 868 367 q 833 81 868 128 q 738 19 799 33 z "},"D":{"ha":1028,"x_min":46,"x_max":964,"o":"m 964 250 q 906 105 964 174 q 781 24 849 36 q 638 5 713 11 q 488 -1 563 -1 q 305 2 415 -1 q 175 6 194 6 q 78 47 110 6 q 46 197 46 88 q 97 573 46 360 q 199 919 149 786 q 296 1069 250 1051 q 406 1086 342 1086 q 599 1058 528 1086 q 718 964 669 1029 q 850 735 799 839 q 933 511 901 632 q 964 250 964 390 m 510 871 q 463 825 476 871 q 449 722 449 779 q 448 681 449 701 q 447 640 447 661 q 462 545 447 579 q 522 507 476 511 q 592 539 567 507 q 618 619 618 571 q 587 788 618 706 q 510 871 556 871 z "},"E":{"ha":1014,"x_min":46,"x_max":961,"o":"m 678 0 l 190 -1 q 87 49 128 -1 q 46 167 46 100 q 72 386 46 233 q 144 712 97 539 q 244 1003 190 885 q 324 1065 276 1049 q 436 1082 371 1082 q 485 1082 461 1082 q 535 1083 510 1082 q 677 1063 631 1083 q 724 978 724 1043 q 606 907 724 915 q 489 847 489 899 q 508 792 489 807 q 564 776 528 776 q 621 781 581 776 q 685 785 661 785 q 747 765 724 785 q 771 717 771 744 q 749 652 771 669 q 672 635 728 635 q 637 635 654 635 q 603 636 619 635 q 529 623 553 636 q 506 567 506 610 q 541 514 506 528 q 636 500 576 500 q 693 501 665 500 q 747 504 721 503 q 903 411 846 504 q 961 183 961 318 q 903 42 961 83 q 678 0 844 0 z "},"F":{"ha":819,"x_min":36,"x_max":763,"o":"m 676 910 q 624 912 657 910 q 589 914 590 914 q 519 901 544 914 q 493 853 493 889 q 521 792 493 814 q 596 769 549 769 q 627 771 606 769 q 660 772 649 772 q 727 756 703 772 q 751 690 751 740 q 735 624 751 640 q 681 607 718 607 q 647 608 672 607 q 606 610 622 610 q 535 597 568 610 q 503 564 503 585 q 570 350 503 482 q 638 154 638 218 q 592 33 638 71 q 444 -6 547 -6 q 342 -7 383 -6 q 264 -10 300 -8 q 156 -3 200 -10 q 85 24 111 3 q 48 78 60 44 q 36 154 36 111 q 91 535 36 301 q 196 906 146 769 q 311 1065 246 1042 q 490 1088 376 1088 q 631 1083 581 1088 q 731 1061 682 1079 q 756 1034 750 1051 q 763 990 763 1017 q 742 926 763 943 q 676 910 721 910 z "},"G":{"ha":958,"x_min":43,"x_max":903,"o":"m 903 192 q 858 44 903 90 q 683 -3 813 -3 l 621 -3 l 567 -3 l 519 -3 l 479 -3 l 444 -3 l 414 -3 l 388 -3 l 364 -3 l 343 -3 l 325 -3 l 308 -3 q 259 -2 283 -3 q 210 -1 235 -1 l 196 -1 q 82 77 121 -1 q 43 258 43 156 q 81 549 43 347 q 194 919 119 751 q 375 1086 269 1086 l 460 1086 q 526 1086 493 1086 q 598 1081 558 1086 q 687 1020 638 1076 q 736 889 736 964 q 712 822 736 843 q 646 801 688 801 q 588 849 619 801 q 507 896 556 896 q 444 835 464 896 q 424 697 424 775 q 446 563 424 611 q 525 515 468 515 q 609 523 590 515 q 628 571 628 531 q 567 601 628 586 q 507 658 507 617 q 529 703 507 689 q 625 718 551 718 q 828 548 753 718 q 903 192 903 378 z "},"H":{"ha":1097,"x_min":49,"x_max":1033,"o":"m 1033 133 q 973 22 1033 50 q 783 -6 913 -6 q 627 25 674 -6 q 581 125 581 56 q 601 244 581 160 q 621 361 621 329 q 602 425 621 403 q 536 447 583 447 q 479 428 496 447 q 463 372 463 408 q 483 253 463 338 q 504 133 504 168 q 449 24 504 43 q 288 4 394 4 q 110 33 171 4 q 49 171 49 61 q 155 763 49 422 q 357 1103 261 1103 q 448 1079 422 1103 q 474 1011 474 1056 q 460 919 474 983 q 446 825 446 856 q 472 753 446 779 q 536 726 499 726 q 605 754 576 726 q 633 833 633 782 q 620 921 633 850 q 607 1017 607 992 q 624 1077 607 1057 q 685 1097 640 1097 q 815 1024 768 1097 q 894 817 861 950 q 961 551 928 683 q 1014 316 994 419 q 1033 133 1033 213 z "},"I":{"ha":639,"x_min":50,"x_max":576,"o":"m 576 149 q 526 27 576 56 q 382 -1 476 -1 q 345 -1 364 -1 q 308 0 326 0 l 261 0 q 103 28 157 0 q 50 154 50 56 q 118 669 50 371 q 224 1024 186 968 q 281 1085 261 1079 q 318 1090 300 1090 q 401 1035 360 1090 q 509 685 442 981 q 576 149 576 389 z "},"J":{"ha":764,"x_min":40,"x_max":699,"o":"m 575 13 q 372 -6 503 -6 q 193 7 278 -6 q 74 108 108 19 q 40 308 40 196 q 66 533 40 460 q 132 607 92 607 q 201 563 167 607 q 271 518 235 518 q 347 660 324 518 q 392 942 371 803 q 490 1090 424 1090 q 639 851 579 1090 q 699 328 699 613 q 676 118 699 199 q 575 13 654 38 z "},"K":{"ha":1000,"x_min":46,"x_max":957,"o":"m 957 111 q 942 51 957 78 q 899 16 928 24 q 836 5 869 8 q 758 1 803 1 q 692 3 736 1 q 626 4 647 4 q 549 42 574 4 q 525 133 525 81 q 538 237 525 167 q 550 325 550 307 q 523 406 550 374 q 461 439 496 439 q 421 419 436 439 q 406 356 406 400 q 445 235 406 319 q 485 122 485 151 q 443 31 485 61 q 333 0 401 0 q 121 10 218 0 q 59 74 72 21 q 46 193 46 128 q 72 557 46 385 q 140 848 99 729 q 228 1025 181 967 q 319 1083 276 1083 q 419 1068 397 1083 q 442 994 442 1053 q 436 936 442 975 q 431 879 431 897 q 444 831 431 847 q 496 814 458 814 q 617 951 529 814 q 767 1088 706 1088 q 835 1061 807 1088 q 863 1003 863 1035 q 781 854 863 960 q 699 689 699 749 q 775 541 699 664 q 904 310 851 418 q 957 111 957 203 z "},"L":{"ha":861,"x_min":39,"x_max":804,"o":"m 804 121 q 749 35 804 64 q 625 6 694 6 l 217 3 q 86 47 133 3 q 39 192 39 92 q 81 557 39 342 q 186 926 124 772 q 310 1081 249 1081 q 410 1024 383 1081 q 438 868 438 967 q 435 772 438 815 q 429 668 432 728 q 472 542 429 565 q 613 518 514 518 q 765 410 726 518 q 804 121 804 303 z "},"M":{"ha":1319,"x_min":60,"x_max":1256,"o":"m 1256 229 q 1211 43 1256 93 q 1017 -7 1167 -7 q 869 25 924 -7 q 814 108 814 57 q 845 212 814 133 q 876 336 876 290 q 843 383 876 383 q 784 342 814 383 q 754 242 754 301 q 724 131 754 174 q 653 88 693 88 q 591 128 615 88 q 567 250 567 168 q 538 339 567 300 q 483 378 510 378 q 456 333 456 378 q 488 220 456 299 q 519 96 519 142 q 504 46 519 68 q 463 17 489 24 q 388 10 436 14 q 314 6 339 6 q 128 51 196 6 q 60 221 60 97 q 135 596 60 368 q 265 928 210 824 q 356 1060 319 1032 q 440 1088 393 1088 q 589 917 560 1088 q 669 747 618 747 q 743 915 710 747 q 863 1083 776 1083 q 938 1076 910 1083 q 1041 953 967 1069 q 1185 640 1115 838 q 1256 229 1256 442 z "},"N":{"ha":1042,"x_min":46,"x_max":975,"o":"m 975 358 q 929 81 975 168 q 767 -6 883 -6 q 614 59 649 -6 q 542 258 579 124 q 450 392 506 392 q 410 380 428 392 q 393 351 393 368 q 442 218 393 300 q 490 94 490 136 q 435 22 490 40 q 286 4 381 4 q 219 6 263 4 q 160 7 176 7 q 72 93 99 7 q 46 282 46 179 q 117 831 46 651 q 232 1049 189 1010 q 335 1088 275 1088 q 471 926 418 1088 q 589 765 524 765 q 663 926 646 765 q 749 1086 679 1086 q 914 828 853 1086 q 975 358 975 571 z "},"O":{"ha":1000,"x_min":44,"x_max":925,"o":"m 925 150 q 703 -7 925 -7 q 551 -8 654 -7 q 397 -10 449 -10 q 130 17 215 -10 q 44 171 44 44 q 80 523 44 350 q 161 834 115 696 q 278 1026 207 972 q 435 1081 350 1081 q 640 1058 557 1081 q 787 888 724 1035 q 888 557 850 742 q 925 150 925 372 m 563 563 q 545 749 563 672 q 482 826 528 826 q 438 742 453 826 q 422 557 422 657 q 446 518 422 533 q 499 503 469 503 q 543 521 524 503 q 563 563 563 539 z "},"P":{"ha":944,"x_min":42,"x_max":878,"o":"m 842 483 q 751 419 810 435 q 614 403 692 403 q 579 403 596 403 q 547 404 563 403 q 516 388 531 404 q 501 353 501 372 q 532 225 501 310 q 563 94 563 140 q 531 24 563 53 q 454 -4 500 -4 l 200 -4 q 74 37 106 -4 q 42 161 42 78 q 63 433 42 313 q 123 688 83 553 q 192 923 163 824 q 301 1052 222 1022 q 481 1082 379 1082 q 770 957 663 1082 q 878 642 878 832 q 842 483 878 556 m 594 794 q 567 867 594 835 q 508 899 539 899 q 457 880 474 899 q 440 808 440 861 q 456 733 440 744 q 538 722 472 722 q 577 747 560 722 q 594 794 594 771 z "},"Q":{"ha":1000,"x_min":46,"x_max":950,"o":"m 949 185 q 950 164 950 178 q 927 76 950 113 q 866 22 904 40 q 792 -12 828 3 q 826 -73 797 -25 q 856 -151 856 -121 q 803 -244 856 -219 q 664 -268 750 -268 q 501 -243 558 -268 q 443 -149 443 -218 q 465 -70 443 -118 q 492 -7 488 -22 q 118 38 190 -7 q 46 283 46 82 q 60 469 46 375 q 99 658 75 564 q 157 868 124 753 q 250 1024 189 958 q 399 1090 311 1090 q 444 1090 421 1090 q 490 1092 467 1090 q 633 1074 575 1092 q 719 1001 690 1056 q 834 762 790 890 q 903 492 878 633 q 949 185 929 351 m 479 849 q 428 773 443 849 q 414 603 414 697 q 426 539 414 560 q 486 518 439 518 q 539 546 529 518 q 549 599 549 574 q 531 765 549 682 q 479 849 513 849 z "},"R":{"ha":1111,"x_min":50,"x_max":1061,"o":"m 1061 67 q 1006 12 1061 29 q 863 -6 950 -6 q 745 1 808 -6 q 619 17 682 7 q 581 66 590 28 q 571 158 571 104 q 576 262 571 196 q 581 350 581 328 q 565 418 581 394 q 526 442 549 442 q 483 420 501 442 q 464 364 464 399 q 488 225 464 328 q 513 76 513 122 q 491 22 513 44 q 439 3 469 -1 q 351 1 407 3 q 271 0 296 0 q 188 2 208 0 q 115 13 167 4 q 63 62 76 25 q 50 150 50 99 q 90 526 50 282 q 166 887 129 769 q 249 1042 203 1004 q 356 1088 296 1081 q 442 1089 382 1088 q 533 1090 503 1090 q 769 1006 679 1090 q 858 783 858 922 q 803 672 858 699 q 749 629 749 646 q 837 528 749 622 q 993 317 925 433 q 1061 67 1061 201 m 540 897 q 481 936 524 936 q 461 933 475 936 q 439 904 446 926 q 429 871 432 882 q 442 816 433 838 q 471 782 450 794 q 500 779 488 779 q 524 783 515 779 q 538 797 533 786 q 551 843 551 813 q 540 897 551 875 z "},"S":{"ha":958,"x_min":43,"x_max":899,"o":"m 899 261 q 837 61 899 126 q 668 -4 775 -4 l 644 -4 q 629 -3 635 -3 q 588 3 610 1 q 538 4 567 4 q 408 0 488 4 q 328 -4 329 -4 q 125 63 207 -4 q 43 256 43 131 q 85 453 43 368 q 233 538 126 538 q 328 482 290 538 q 403 426 367 426 l 421 426 q 481 438 461 426 q 500 489 500 449 q 392 558 500 528 q 217 632 283 588 q 151 808 151 676 q 231 1001 151 922 q 454 1079 311 1079 q 694 1007 596 1079 q 792 800 792 935 q 772 755 792 779 q 732 731 753 731 q 626 791 661 731 q 561 864 590 851 q 501 874 532 874 q 460 866 475 874 q 446 838 446 858 q 588 705 446 760 q 815 572 731 650 q 899 261 899 494 z "},"T":{"ha":931,"x_min":42,"x_max":881,"o":"m 881 808 q 869 763 881 783 q 833 742 857 742 q 745 763 807 742 q 663 785 683 785 q 621 767 646 785 q 596 732 596 749 q 631 567 596 661 q 699 385 665 474 q 735 158 735 271 q 710 54 735 93 q 626 8 686 15 q 526 -2 565 1 q 438 -6 486 -6 q 338 1 379 -6 q 259 22 297 7 q 213 69 221 38 q 204 146 204 100 q 247 396 204 244 q 335 703 289 547 q 316 766 335 746 q 253 786 297 786 q 188 760 236 786 q 125 733 140 733 q 60 774 79 733 q 42 875 42 815 q 86 996 42 943 q 199 1064 131 1049 q 493 1067 293 1064 q 711 1069 693 1069 q 835 989 789 1069 q 881 808 881 908 z "},"U":{"ha":1014,"x_min":46,"x_max":963,"o":"m 963 254 q 873 49 963 110 q 638 -11 783 -11 q 428 -3 569 -11 q 271 6 288 6 q 97 92 149 6 q 46 304 46 179 q 138 799 46 521 q 308 1076 229 1076 q 402 1047 375 1076 q 429 967 429 1018 q 403 811 429 914 q 378 663 378 708 q 412 572 378 604 q 493 539 446 539 q 574 569 539 539 q 608 653 608 600 q 587 794 608 686 q 565 946 565 903 q 585 1033 565 994 q 649 1072 606 1072 q 824 906 754 1072 q 928 538 894 740 q 963 254 963 335 z "},"V":{"ha":944,"x_min":43,"x_max":896,"o":"m 896 875 q 831 536 896 767 q 710 165 765 306 q 622 8 656 24 q 450 -8 589 -8 q 283 36 324 -8 q 197 233 242 81 q 119 506 151 385 q 65 756 88 626 q 43 1019 43 885 q 73 1062 56 1047 q 125 1076 90 1076 q 254 967 199 1076 q 344 763 299 864 q 486 651 404 651 q 583 758 538 651 q 669 968 628 864 q 786 1079 722 1079 q 876 1038 856 1079 q 896 917 896 996 l 896 875 z "},"W":{"ha":1319,"x_min":60,"x_max":1251,"o":"m 839 -18 q 723 17 760 -18 q 686 100 686 51 q 703 187 686 128 q 719 268 719 246 q 717 296 719 276 q 651 338 693 338 q 625 332 636 338 q 603 294 610 315 q 597 244 597 272 q 603 163 597 217 q 610 104 610 110 q 555 22 610 54 q 421 -11 500 -11 q 206 133 285 -11 q 93 460 126 276 q 60 742 60 643 q 110 982 60 886 q 275 1078 160 1078 q 383 1044 333 1078 q 428 963 433 1010 q 405 880 428 938 q 382 800 382 822 q 404 726 382 747 q 464 706 426 706 q 538 890 510 706 q 663 1074 565 1074 q 781 890 771 1074 q 865 706 790 706 q 913 722 899 706 q 928 765 928 738 q 907 868 928 794 q 886 971 886 942 q 927 1039 886 1010 q 1033 1068 968 1068 q 1194 990 1136 1068 q 1251 800 1251 911 q 1217 440 1251 624 q 1091 119 1183 256 q 839 -18 999 -18 z "},"X":{"ha":1097,"x_min":50,"x_max":1044,"o":"m 1044 140 q 994 20 1044 53 q 792 -12 944 -12 q 635 16 681 -12 q 589 117 589 44 q 598 220 589 146 q 607 311 607 294 q 593 373 607 351 q 544 394 579 394 q 499 376 511 394 q 488 322 488 358 q 498 220 488 293 q 508 117 508 147 q 469 14 508 42 q 357 -14 429 -14 q 265 -8 329 -14 q 169 -3 201 -3 q 83 49 115 -3 q 50 161 50 100 q 125 388 50 263 q 288 632 206 510 q 217 833 288 717 q 147 996 147 949 q 174 1054 147 1028 q 229 1081 200 1081 q 410 963 321 1081 q 558 844 499 844 q 692 960 596 844 q 861 1076 789 1076 q 928 1045 901 1076 q 956 972 956 1014 q 883 831 953 958 q 813 650 813 704 q 891 496 813 608 q 1007 313 969 383 q 1044 140 1044 243 z "},"Y":{"ha":931,"x_min":42,"x_max":885,"o":"m 885 975 q 822 825 885 911 q 699 660 758 739 q 633 488 633 564 q 672 323 633 442 q 710 142 710 204 q 660 22 710 61 q 454 -17 611 -17 q 248 22 297 -17 q 199 146 199 60 q 233 329 199 203 q 267 500 267 456 q 210 658 267 571 q 100 825 154 744 q 42 1007 42 924 q 67 1053 42 1033 q 125 1072 92 1072 q 303 956 213 1072 q 439 840 394 840 q 610 959 506 840 q 775 1078 715 1078 q 850 1049 815 1078 q 885 975 885 1021 z "},"Z":{"ha":917,"x_min":40,"x_max":868,"o":"m 868 154 q 806 31 868 64 q 626 -1 744 -1 l 436 -1 l 396 -1 l 361 -1 q 160 6 235 -1 q 63 60 85 13 q 40 163 40 108 q 63 319 40 239 q 125 490 86 400 q 285 647 157 544 q 413 788 413 749 q 389 866 413 847 q 322 885 365 885 q 294 883 313 885 q 268 882 275 882 q 217 895 233 882 q 200 950 200 908 q 199 970 200 960 q 199 992 199 981 q 204 1037 199 1021 q 242 1061 210 1053 q 335 1074 275 1069 q 450 1078 394 1078 q 546 1076 481 1078 q 646 1075 611 1075 q 730 1038 692 1075 q 768 947 768 1001 q 693 796 768 894 q 618 675 618 697 q 698 558 618 592 q 806 445 778 525 q 851 288 835 365 q 868 154 868 210 z "},"_":{"ha":694,"x_min":-3,"x_max":697,"o":"m 697 -190 l -3 -190 l -3 -87 l 697 -87 l 697 -190 z "},"a":{"ha":1069,"x_min":47,"x_max":994,"o":"m 994 150 q 933 20 994 46 q 758 -6 872 -6 q 605 18 651 -6 q 558 128 558 42 q 574 224 558 157 q 590 314 590 290 q 569 379 590 353 q 521 406 547 406 q 481 380 497 406 q 464 303 464 354 q 474 215 464 274 q 483 136 483 157 q 467 60 483 90 q 408 10 451 31 q 326 -6 364 -1 q 247 -11 289 -11 q 176 -6 211 -11 q 108 13 142 0 q 61 74 75 38 q 47 153 47 110 q 88 342 47 182 q 194 696 129 503 q 325 1001 260 889 q 400 1063 353 1043 q 508 1082 447 1082 q 631 1065 572 1082 q 741 974 690 1049 q 855 730 792 899 q 956 396 918 561 q 994 150 994 231 m 521 861 q 487 828 501 861 q 472 756 472 794 q 483 703 472 724 q 518 683 494 683 q 572 707 554 683 q 590 765 590 731 q 571 832 590 803 q 521 861 551 861 z "},"b":{"ha":1056,"x_min":47,"x_max":988,"o":"m 988 243 q 952 74 988 149 q 804 -1 917 -1 l 219 0 q 98 44 149 0 q 47 156 47 88 q 61 285 47 190 q 75 406 75 379 q 119 614 96 508 q 174 820 142 719 q 249 1007 206 921 q 342 1076 285 1058 q 489 1094 400 1094 q 754 1008 665 1094 q 843 792 843 922 q 814 713 843 740 q 749 664 781 688 q 915 507 842 615 q 988 243 988 399 m 500 924 q 463 891 475 924 q 450 819 450 858 q 464 774 450 790 q 508 757 478 757 q 560 777 546 757 q 574 833 574 797 q 553 896 574 868 q 500 924 532 924 m 600 501 q 573 585 600 544 q 514 626 546 626 q 461 578 468 626 q 454 489 454 529 q 479 455 454 468 q 528 442 504 442 q 581 459 563 442 q 600 501 600 476 z "},"c":{"ha":931,"x_min":42,"x_max":868,"o":"m 738 19 q 563 4 649 10 q 388 -1 478 -1 q 176 9 267 -1 q 64 71 86 19 q 42 219 42 122 q 83 531 42 357 q 163 867 124 706 q 242 1028 201 971 q 364 1086 283 1086 q 442 1085 403 1086 q 519 1085 481 1085 q 650 1025 592 1085 q 708 883 708 965 q 644 778 708 778 q 576 821 618 774 q 510 868 535 868 q 419 812 442 868 q 397 667 397 756 q 430 554 397 600 q 522 508 463 508 q 624 582 585 508 q 703 656 663 656 q 775 619 749 656 q 835 474 801 582 q 868 200 868 367 q 833 81 868 128 q 738 19 799 33 z "},"d":{"ha":1028,"x_min":46,"x_max":964,"o":"m 964 250 q 906 105 964 174 q 781 24 849 36 q 638 5 713 11 q 488 -1 563 -1 q 305 2 415 -1 q 175 6 194 6 q 78 47 110 6 q 46 197 46 88 q 97 573 46 360 q 199 919 149 786 q 296 1069 250 1051 q 406 1086 342 1086 q 599 1058 528 1086 q 718 964 669 1029 q 850 735 799 839 q 933 511 901 632 q 964 250 964 390 m 510 871 q 463 825 476 871 q 449 722 449 779 q 448 681 449 701 q 447 640 447 661 q 462 545 447 579 q 522 507 476 511 q 592 539 567 507 q 618 619 618 571 q 587 788 618 706 q 510 871 556 871 z "},"e":{"ha":1014,"x_min":46,"x_max":961,"o":"m 678 0 l 190 -1 q 87 49 128 -1 q 46 167 46 100 q 72 386 46 233 q 144 712 97 539 q 244 1003 190 885 q 324 1065 276 1049 q 436 1082 371 1082 q 485 1082 461 1082 q 535 1083 510 1082 q 677 1063 631 1083 q 724 978 724 1043 q 606 907 724 915 q 489 847 489 899 q 508 792 489 807 q 564 776 528 776 q 621 781 581 776 q 685 785 661 785 q 747 765 724 785 q 771 717 771 744 q 749 652 771 669 q 672 635 728 635 q 637 635 654 635 q 603 636 619 635 q 529 623 553 636 q 506 567 506 610 q 541 514 506 528 q 636 500 576 500 q 693 501 665 500 q 747 504 721 503 q 903 411 846 504 q 961 183 961 318 q 903 42 961 83 q 678 0 844 0 z "},"f":{"ha":819,"x_min":36,"x_max":763,"o":"m 676 910 q 624 912 657 910 q 589 914 590 914 q 519 901 544 914 q 493 853 493 889 q 521 792 493 814 q 596 769 549 769 q 627 771 606 769 q 660 772 649 772 q 727 756 703 772 q 751 690 751 740 q 735 624 751 640 q 681 607 718 607 q 647 608 672 607 q 606 610 622 610 q 535 597 568 610 q 503 564 503 585 q 570 350 503 482 q 638 154 638 218 q 592 33 638 71 q 444 -6 547 -6 q 342 -7 383 -6 q 264 -10 300 -8 q 156 -3 200 -10 q 85 24 111 3 q 48 78 60 44 q 36 154 36 111 q 91 535 36 301 q 196 906 146 769 q 311 1065 246 1042 q 490 1088 376 1088 q 631 1083 581 1088 q 731 1061 682 1079 q 756 1034 750 1051 q 763 990 763 1017 q 742 926 763 943 q 676 910 721 910 z "},"g":{"ha":958,"x_min":43,"x_max":903,"o":"m 903 192 q 858 44 903 90 q 683 -3 813 -3 l 621 -3 l 567 -3 l 519 -3 l 479 -3 l 444 -3 l 414 -3 l 388 -3 l 364 -3 l 343 -3 l 325 -3 l 308 -3 q 259 -2 283 -3 q 210 -1 235 -1 l 196 -1 q 82 77 121 -1 q 43 258 43 156 q 81 549 43 347 q 194 919 119 751 q 375 1086 269 1086 l 460 1086 q 526 1086 493 1086 q 598 1081 558 1086 q 687 1020 638 1076 q 736 889 736 964 q 712 822 736 843 q 646 801 688 801 q 588 849 619 801 q 507 896 556 896 q 444 835 464 896 q 424 697 424 775 q 446 563 424 611 q 525 515 468 515 q 609 523 590 515 q 628 571 628 531 q 567 601 628 586 q 507 658 507 617 q 529 703 507 689 q 625 718 551 718 q 828 548 753 718 q 903 192 903 378 z "},"h":{"ha":1097,"x_min":49,"x_max":1033,"o":"m 1033 133 q 973 22 1033 50 q 783 -6 913 -6 q 627 25 674 -6 q 581 125 581 56 q 601 244 581 160 q 621 361 621 329 q 602 425 621 403 q 536 447 583 447 q 479 428 496 447 q 463 372 463 408 q 483 253 463 338 q 504 133 504 168 q 449 24 504 43 q 288 4 394 4 q 110 33 171 4 q 49 171 49 61 q 155 763 49 422 q 357 1103 261 1103 q 448 1079 422 1103 q 474 1011 474 1056 q 460 919 474 983 q 446 825 446 856 q 472 753 446 779 q 536 726 499 726 q 605 754 576 726 q 633 833 633 782 q 620 921 633 850 q 607 1017 607 992 q 624 1077 607 1057 q 685 1097 640 1097 q 815 1024 768 1097 q 894 817 861 950 q 961 551 928 683 q 1014 316 994 419 q 1033 133 1033 213 z "},"i":{"ha":639,"x_min":50,"x_max":576,"o":"m 576 149 q 526 27 576 56 q 382 -1 476 -1 q 345 -1 364 -1 q 308 0 326 0 l 261 0 q 103 28 157 0 q 50 154 50 56 q 118 669 50 371 q 224 1024 186 968 q 281 1085 261 1079 q 318 1090 300 1090 q 401 1035 360 1090 q 509 685 442 981 q 576 149 576 389 z "},"j":{"ha":764,"x_min":40,"x_max":699,"o":"m 575 13 q 372 -6 503 -6 q 193 7 278 -6 q 74 108 108 19 q 40 308 40 196 q 66 533 40 460 q 132 607 92 607 q 201 563 167 607 q 271 518 235 518 q 347 660 324 518 q 392 942 371 803 q 490 1090 424 1090 q 639 851 579 1090 q 699 328 699 613 q 676 118 699 199 q 575 13 654 38 z "},"k":{"ha":1000,"x_min":46,"x_max":957,"o":"m 957 111 q 942 51 957 78 q 899 16 928 24 q 836 5 869 8 q 758 1 803 1 q 692 3 736 1 q 626 4 647 4 q 549 42 574 4 q 525 133 525 81 q 538 237 525 167 q 550 325 550 307 q 523 406 550 374 q 461 439 496 439 q 421 419 436 439 q 406 356 406 400 q 445 235 406 319 q 485 122 485 151 q 443 31 485 61 q 333 0 401 0 q 121 10 218 0 q 59 74 72 21 q 46 193 46 128 q 72 557 46 385 q 140 848 99 729 q 228 1025 181 967 q 319 1083 276 1083 q 419 1068 397 1083 q 442 994 442 1053 q 436 936 442 975 q 431 879 431 897 q 444 831 431 847 q 496 814 458 814 q 617 951 529 814 q 767 1088 706 1088 q 835 1061 807 1088 q 863 1003 863 1035 q 781 854 863 960 q 699 689 699 749 q 775 541 699 664 q 904 310 851 418 q 957 111 957 203 z "},"l":{"ha":861,"x_min":39,"x_max":804,"o":"m 804 121 q 749 35 804 64 q 625 6 694 6 l 217 3 q 86 47 133 3 q 39 192 39 92 q 81 557 39 342 q 186 926 124 772 q 310 1081 249 1081 q 410 1024 383 1081 q 438 868 438 967 q 435 772 438 815 q 429 668 432 728 q 472 542 429 565 q 613 518 514 518 q 765 410 726 518 q 804 121 804 303 z "},"m":{"ha":1319,"x_min":60,"x_max":1256,"o":"m 1256 229 q 1211 43 1256 93 q 1017 -7 1167 -7 q 869 25 924 -7 q 814 108 814 57 q 845 212 814 133 q 876 336 876 290 q 843 383 876 383 q 784 342 814 383 q 754 242 754 301 q 724 131 754 174 q 653 88 693 88 q 591 128 615 88 q 567 250 567 168 q 538 339 567 300 q 483 378 510 378 q 456 333 456 378 q 488 220 456 299 q 519 96 519 142 q 504 46 519 68 q 463 17 489 24 q 388 10 436 14 q 314 6 339 6 q 128 51 196 6 q 60 221 60 97 q 135 596 60 368 q 265 928 210 824 q 356 1060 319 1032 q 440 1088 393 1088 q 589 917 560 1088 q 669 747 618 747 q 743 915 710 747 q 863 1083 776 1083 q 938 1076 910 1083 q 1041 953 967 1069 q 1185 640 1115 838 q 1256 229 1256 442 z "},"n":{"ha":1042,"x_min":46,"x_max":975,"o":"m 975 358 q 929 81 975 168 q 767 -6 883 -6 q 614 59 649 -6 q 542 258 579 124 q 450 392 506 392 q 410 380 428 392 q 393 351 393 368 q 442 218 393 300 q 490 94 490 136 q 435 22 490 40 q 286 4 381 4 q 219 6 263 4 q 160 7 176 7 q 72 93 99 7 q 46 282 46 179 q 117 831 46 651 q 232 1049 189 1010 q 335 1088 275 1088 q 471 926 418 1088 q 589 765 524 765 q 663 926 646 765 q 749 1086 679 1086 q 914 828 853 1086 q 975 358 975 571 z "},"o":{"ha":1000,"x_min":44,"x_max":925,"o":"m 925 150 q 703 -7 925 -7 q 551 -8 654 -7 q 397 -10 449 -10 q 130 17 215 -10 q 44 171 44 44 q 80 523 44 350 q 161 834 115 696 q 278 1026 207 972 q 435 1081 350 1081 q 640 1058 557 1081 q 787 888 724 1035 q 888 557 850 742 q 925 150 925 372 m 563 563 q 545 749 563 672 q 482 826 528 826 q 438 742 453 826 q 422 557 422 657 q 446 518 422 533 q 499 503 469 503 q 543 521 524 503 q 563 563 563 539 z "},"p":{"ha":944,"x_min":42,"x_max":878,"o":"m 842 483 q 751 419 810 435 q 614 403 692 403 q 579 403 596 403 q 547 404 563 403 q 516 388 531 404 q 501 353 501 372 q 532 225 501 310 q 563 94 563 140 q 531 24 563 53 q 454 -4 500 -4 l 200 -4 q 74 37 106 -4 q 42 161 42 78 q 63 433 42 313 q 123 688 83 553 q 192 923 163 824 q 301 1052 222 1022 q 481 1082 379 1082 q 770 957 663 1082 q 878 642 878 832 q 842 483 878 556 m 594 794 q 567 867 594 835 q 508 899 539 899 q 457 880 474 899 q 440 808 440 861 q 456 733 440 744 q 538 722 472 722 q 577 747 560 722 q 594 794 594 771 z "},"q":{"ha":1000,"x_min":46,"x_max":950,"o":"m 949 185 q 950 164 950 178 q 927 76 950 113 q 866 22 904 40 q 792 -12 828 3 q 826 -73 797 -25 q 856 -151 856 -121 q 803 -244 856 -219 q 664 -268 750 -268 q 501 -243 558 -268 q 443 -149 443 -218 q 465 -70 443 -118 q 492 -7 488 -22 q 118 38 190 -7 q 46 283 46 82 q 60 469 46 375 q 99 658 75 564 q 157 868 124 753 q 250 1024 189 958 q 399 1090 311 1090 q 444 1090 421 1090 q 490 1092 467 1090 q 633 1074 575 1092 q 719 1001 690 1056 q 834 762 790 890 q 903 492 878 633 q 949 185 929 351 m 479 849 q 428 773 443 849 q 414 603 414 697 q 426 539 414 560 q 486 518 439 518 q 539 546 529 518 q 549 599 549 574 q 531 765 549 682 q 479 849 513 849 z "},"r":{"ha":1111,"x_min":50,"x_max":1061,"o":"m 1061 67 q 1006 12 1061 29 q 863 -6 950 -6 q 745 1 808 -6 q 619 17 682 7 q 581 66 590 28 q 571 158 571 104 q 576 262 571 196 q 581 350 581 328 q 565 418 581 394 q 526 442 549 442 q 483 420 501 442 q 464 364 464 399 q 488 225 464 328 q 513 76 513 122 q 491 22 513 44 q 439 3 469 -1 q 351 1 407 3 q 271 0 296 0 q 188 2 208 0 q 115 13 167 4 q 63 62 76 25 q 50 150 50 99 q 90 526 50 282 q 166 887 129 769 q 249 1042 203 1004 q 356 1088 296 1081 q 442 1089 382 1088 q 533 1090 503 1090 q 769 1006 679 1090 q 858 783 858 922 q 803 672 858 699 q 749 629 749 646 q 837 528 749 622 q 993 317 925 433 q 1061 67 1061 201 m 540 897 q 481 936 524 936 q 461 933 475 936 q 439 904 446 926 q 429 871 432 882 q 442 816 433 838 q 471 782 450 794 q 500 779 488 779 q 524 783 515 779 q 538 797 533 786 q 551 843 551 813 q 540 897 551 875 z "},"s":{"ha":958,"x_min":43,"x_max":899,"o":"m 899 261 q 837 61 899 126 q 668 -4 775 -4 l 644 -4 q 629 -3 635 -3 q 588 3 610 1 q 538 4 567 4 q 408 0 488 4 q 328 -4 329 -4 q 125 63 207 -4 q 43 256 43 131 q 85 453 43 368 q 233 538 126 538 q 328 482 290 538 q 403 426 367 426 l 421 426 q 481 438 461 426 q 500 489 500 449 q 392 558 500 528 q 217 632 283 588 q 151 808 151 676 q 231 1001 151 922 q 454 1079 311 1079 q 694 1007 596 1079 q 792 800 792 935 q 772 755 792 779 q 732 731 753 731 q 626 791 661 731 q 561 864 590 851 q 501 874 532 874 q 460 866 475 874 q 446 838 446 858 q 588 705 446 760 q 815 572 731 650 q 899 261 899 494 z "},"t":{"ha":931,"x_min":42,"x_max":881,"o":"m 881 808 q 869 763 881 783 q 833 742 857 742 q 745 763 807 742 q 663 785 683 785 q 621 767 646 785 q 596 732 596 749 q 631 567 596 661 q 699 385 665 474 q 735 158 735 271 q 710 54 735 93 q 626 8 686 15 q 526 -2 565 1 q 438 -6 486 -6 q 338 1 379 -6 q 259 22 297 7 q 213 69 221 38 q 204 146 204 100 q 247 396 204 244 q 335 703 289 547 q 316 766 335 746 q 253 786 297 786 q 188 760 236 786 q 125 733 140 733 q 60 774 79 733 q 42 875 42 815 q 86 996 42 943 q 199 1064 131 1049 q 493 1067 293 1064 q 711 1069 693 1069 q 835 989 789 1069 q 881 808 881 908 z "},"u":{"ha":1014,"x_min":46,"x_max":963,"o":"m 963 254 q 873 49 963 110 q 638 -11 783 -11 q 428 -3 569 -11 q 271 6 288 6 q 97 92 149 6 q 46 304 46 179 q 138 799 46 521 q 308 1076 229 1076 q 402 1047 375 1076 q 429 967 429 1018 q 403 811 429 914 q 378 663 378 708 q 412 572 378 604 q 493 539 446 539 q 574 569 539 539 q 608 653 608 600 q 587 794 608 686 q 565 946 565 903 q 585 1033 565 994 q 649 1072 606 1072 q 824 906 754 1072 q 928 538 894 740 q 963 254 963 335 z "},"v":{"ha":944,"x_min":43,"x_max":896,"o":"m 896 875 q 831 536 896 767 q 710 165 765 306 q 622 8 656 24 q 450 -8 589 -8 q 283 36 324 -8 q 197 233 242 81 q 119 506 151 385 q 65 756 88 626 q 43 1019 43 885 q 73 1062 56 1047 q 125 1076 90 1076 q 254 967 199 1076 q 344 763 299 864 q 486 651 404 651 q 583 758 538 651 q 669 968 628 864 q 786 1079 722 1079 q 876 1038 856 1079 q 896 917 896 996 l 896 875 z "},"w":{"ha":1319,"x_min":60,"x_max":1251,"o":"m 839 -18 q 723 17 760 -18 q 686 100 686 51 q 703 187 686 128 q 719 268 719 246 q 717 296 719 276 q 651 338 693 338 q 625 332 636 338 q 603 294 610 315 q 597 244 597 272 q 603 163 597 217 q 610 104 610 110 q 555 22 610 54 q 421 -11 500 -11 q 206 133 285 -11 q 93 460 126 276 q 60 742 60 643 q 110 982 60 886 q 275 1078 160 1078 q 383 1044 333 1078 q 428 963 433 1010 q 405 880 428 938 q 382 800 382 822 q 404 726 382 747 q 464 706 426 706 q 538 890 510 706 q 663 1074 565 1074 q 781 890 771 1074 q 865 706 790 706 q 913 722 899 706 q 928 765 928 738 q 907 868 928 794 q 886 971 886 942 q 927 1039 886 1010 q 1033 1068 968 1068 q 1194 990 1136 1068 q 1251 800 1251 911 q 1217 440 1251 624 q 1091 119 1183 256 q 839 -18 999 -18 z "},"x":{"ha":1097,"x_min":50,"x_max":1044,"o":"m 1044 140 q 994 20 1044 53 q 792 -12 944 -12 q 635 16 681 -12 q 589 117 589 44 q 598 220 589 146 q 607 311 607 294 q 593 373 607 351 q 544 394 579 394 q 499 376 511 394 q 488 322 488 358 q 498 220 488 293 q 508 117 508 147 q 469 14 508 42 q 357 -14 429 -14 q 265 -8 329 -14 q 169 -3 201 -3 q 83 49 115 -3 q 50 161 50 100 q 125 388 50 263 q 288 632 206 510 q 217 833 288 717 q 147 996 147 949 q 174 1054 147 1028 q 229 1081 200 1081 q 410 963 321 1081 q 558 844 499 844 q 692 960 596 844 q 861 1076 789 1076 q 928 1045 901 1076 q 956 972 956 1014 q 883 831 953 958 q 813 650 813 704 q 891 496 813 608 q 1007 313 969 383 q 1044 140 1044 243 z "},"y":{"ha":931,"x_min":42,"x_max":885,"o":"m 885 975 q 822 825 885 911 q 699 660 758 739 q 633 488 633 564 q 672 323 633 442 q 710 142 710 204 q 660 22 710 61 q 454 -17 611 -17 q 248 22 297 -17 q 199 146 199 60 q 233 329 199 203 q 267 500 267 456 q 210 658 267 571 q 100 825 154 744 q 42 1007 42 924 q 67 1053 42 1033 q 125 1072 92 1072 q 303 956 213 1072 q 439 840 394 840 q 610 959 506 840 q 775 1078 715 1078 q 850 1049 815 1078 q 885 975 885 1021 z "},"z":{"ha":917,"x_min":40,"x_max":868,"o":"m 868 154 q 806 31 868 64 q 626 -1 744 -1 l 436 -1 l 396 -1 l 361 -1 q 160 6 235 -1 q 63 60 85 13 q 40 163 40 108 q 63 319 40 239 q 125 490 86 400 q 285 647 157 544 q 413 788 413 749 q 389 866 413 847 q 322 885 365 885 q 294 883 313 885 q 268 882 275 882 q 217 895 233 882 q 200 950 200 908 q 199 970 200 960 q 199 992 199 981 q 204 1037 199 1021 q 242 1061 210 1053 q 335 1074 275 1069 q 450 1078 394 1078 q 546 1076 481 1078 q 646 1075 611 1075 q 730 1038 692 1075 q 768 947 768 1001 q 693 796 768 894 q 618 675 618 697 q 698 558 618 592 q 806 445 778 525 q 851 288 835 365 q 868 154 868 210 z "},"|":{"ha":583,"x_min":142,"x_max":454,"o":"m 454 -28 q 433 -131 454 -108 q 293 -153 411 -153 q 167 -126 192 -153 q 142 -22 142 -100 q 156 323 142 74 q 197 799 171 572 q 250 1069 224 1026 q 300 1111 276 1111 q 351 1074 325 1111 q 403 812 378 1038 q 442 331 429 586 q 454 -28 454 76 z "},"†":{"ha":694,"x_min":68,"x_max":632,"o":"m 431 811 l 533 810 q 605 773 578 810 q 632 682 632 736 q 625 642 632 663 q 604 622 618 622 q 551 634 585 622 q 506 646 517 646 q 472 635 494 646 q 450 615 450 625 q 430 346 450 539 q 392 26 410 153 q 353 -100 375 -100 q 310 -3 329 -100 q 274 318 292 93 q 256 597 256 543 q 237 634 256 621 q 192 647 218 647 q 154 632 179 647 q 118 617 129 617 q 80 641 92 617 q 68 697 68 665 q 94 767 68 735 q 160 807 121 799 l 279 810 q 299 991 279 918 q 339 1064 319 1064 l 379 1064 q 413 989 394 1064 q 431 811 431 914 z "},"°":{"ha":347,"x_min":22,"x_max":310,"o":"m 310 954 q 269 859 310 899 q 169 819 228 819 q 65 861 108 819 q 22 964 22 903 q 61 1067 22 1026 q 161 1107 100 1107 q 267 1063 224 1107 q 310 954 310 1018 m 233 958 q 215 1011 233 992 q 167 1031 197 1031 q 101 963 101 1031 q 119 913 101 932 q 169 893 138 893 q 215 911 197 893 q 233 958 233 929 z "},"¢":{"ha":778,"x_min":58,"x_max":726,"o":"m 242 154 l 149 163 q 77 211 96 169 q 58 331 58 253 q 91 583 58 442 q 156 856 124 725 q 222 990 192 946 q 319 1033 251 1033 l 329 1033 q 344 1077 335 1060 q 362 1102 354 1094 q 383 1110 369 1110 q 406 1103 397 1110 q 422 1078 414 1097 q 438 1032 431 1060 l 444 1032 q 551 984 504 1032 q 597 868 597 936 q 546 783 597 783 q 490 817 524 779 q 436 856 457 856 q 364 809 382 856 q 346 693 346 763 q 371 601 346 638 q 446 564 396 564 q 530 624 499 564 q 593 685 561 685 q 644 662 621 685 q 686 578 667 639 q 716 449 706 518 q 726 315 726 381 q 699 218 726 256 q 621 169 671 181 l 521 160 l 521 106 q 501 13 521 33 q 376 -7 482 -7 q 263 15 285 -7 q 240 110 240 38 l 242 154 z "},"£":{"ha":847,"x_min":13,"x_max":829,"o":"m 481 496 q 540 414 504 443 q 621 385 576 385 q 786 325 743 385 q 829 113 829 265 q 774 26 829 56 q 650 -3 719 -3 q 424 0 578 -3 q 258 3 271 3 q 128 47 175 3 q 81 192 81 92 q 92 331 81 257 q 125 496 103 404 l 99 496 q 35 510 57 496 q 13 582 13 524 q 49 679 13 638 q 143 721 85 721 l 193 721 q 314 990 250 883 q 426 1097 378 1097 q 491 1074 472 1097 q 510 1004 510 1050 q 482 852 510 958 q 450 721 454 746 l 538 721 q 636 677 600 721 q 672 582 672 633 q 651 513 672 529 q 581 496 629 496 l 481 496 z "},"•":{"ha":625,"x_min":49,"x_max":575,"o":"m 575 586 q 500 399 575 476 q 317 321 425 321 q 127 397 206 321 q 49 582 49 472 q 124 770 49 692 q 308 849 200 849 q 497 772 419 849 q 575 586 575 696 z "},"®":{"ha":1069,"x_min":81,"x_max":1001,"o":"m 1001 581 q 869 251 1001 388 q 549 115 738 115 q 219 249 357 115 q 81 572 81 383 q 213 901 81 764 q 535 1039 344 1039 q 864 904 726 1039 q 1001 581 1001 769 m 935 581 q 816 855 935 740 q 535 969 697 969 q 260 852 375 969 q 146 572 146 735 q 264 297 146 411 q 546 183 382 183 q 822 299 708 183 q 935 581 935 415 m 800 363 q 772 335 800 344 q 701 326 744 326 q 645 328 667 326 q 579 338 624 331 q 560 363 565 343 q 556 408 556 382 l 560 504 q 551 538 560 526 q 532 550 543 550 q 501 511 501 550 q 514 444 501 500 q 526 368 526 389 q 515 341 526 353 q 489 331 504 329 q 448 330 468 331 q 408 329 428 329 q 369 331 389 329 q 329 337 350 332 q 301 360 308 342 q 294 404 294 378 q 314 593 294 475 q 352 770 333 711 q 394 850 371 829 q 447 874 418 871 l 536 875 q 654 833 610 875 q 699 721 699 792 q 672 665 699 675 q 644 644 644 654 q 753 511 706 586 q 800 363 800 436 m 540 778 q 500 796 531 803 q 485 765 492 792 q 497 726 485 732 q 519 719 510 719 q 539 728 536 719 q 546 750 546 738 q 540 778 546 764 z "},"©":{"ha":1069,"x_min":81,"x_max":1001,"o":"m 1001 581 q 869 251 1001 388 q 549 115 738 115 q 219 249 357 115 q 81 572 81 383 q 213 901 81 764 q 535 1039 344 1039 q 864 904 726 1039 q 1001 581 1001 769 m 935 581 q 816 855 935 740 q 535 969 697 969 q 260 852 375 969 q 146 572 146 735 q 264 297 146 411 q 546 183 382 183 q 822 299 708 183 q 935 581 935 415 m 744 421 q 679 331 744 347 q 503 319 590 319 q 462 320 481 319 q 399 326 443 321 q 342 358 354 331 q 331 431 331 385 q 351 588 331 503 q 392 754 371 674 q 431 835 410 806 q 492 864 451 864 l 569 864 q 635 834 607 864 q 664 763 664 804 q 632 710 664 710 q 598 732 621 708 q 565 756 575 756 q 524 734 539 756 q 508 654 508 713 q 524 597 508 619 q 571 575 540 575 q 622 612 603 575 q 661 649 640 649 q 697 632 685 649 q 720 580 710 615 q 738 503 731 544 q 744 421 744 463 z "},"™":{"ha":1111,"x_min":29,"x_max":1028,"o":"m 1028 650 q 1006 556 1028 581 q 908 531 985 531 q 835 547 863 531 q 807 589 807 564 q 823 642 807 606 q 839 703 839 678 q 822 726 839 726 q 792 706 807 726 q 778 656 778 686 q 763 600 778 621 q 726 579 747 579 q 696 599 708 579 q 683 660 683 619 q 670 705 683 686 q 642 724 657 724 q 628 701 628 724 q 644 644 628 682 q 660 583 660 606 q 636 545 660 550 q 596 539 613 540 q 557 538 579 538 q 465 561 499 538 q 431 646 431 585 q 468 833 431 718 q 549 1031 506 947 q 579 1065 561 1051 q 621 1079 597 1079 q 694 994 681 1079 q 735 908 708 908 q 772 992 756 908 q 832 1076 789 1076 q 869 1073 856 1076 q 922 1011 883 1069 q 994 856 960 953 q 1028 650 1028 760 m 449 939 q 442 916 449 926 q 425 906 436 906 q 377 917 408 906 q 340 928 346 928 q 319 919 332 928 q 307 901 307 910 q 342 774 307 863 q 376 614 376 685 q 364 563 376 582 q 311 538 351 543 q 228 532 271 532 q 146 543 174 532 q 115 569 118 554 q 111 608 111 583 q 132 734 111 660 q 176 886 153 808 q 135 928 176 928 q 103 915 126 928 q 71 901 79 901 q 38 922 47 901 q 29 972 29 942 q 51 1033 29 1007 q 108 1067 74 1058 q 237 1068 154 1067 q 364 1069 319 1069 q 426 1030 404 1069 q 449 939 449 990 z "},"Æ":{"ha":1625,"x_min":100,"x_max":1586,"o":"m 701 861 q 654 816 678 861 q 631 729 631 771 q 665 683 631 683 q 731 715 707 683 q 756 789 756 747 q 742 841 756 821 q 701 861 728 861 m 901 1038 q 971 1072 933 1063 q 1061 1082 1008 1082 q 1110 1082 1086 1082 q 1160 1083 1135 1082 q 1302 1063 1256 1083 q 1349 978 1349 1043 q 1231 907 1349 915 q 1114 847 1114 899 q 1133 792 1114 807 q 1189 776 1153 776 q 1246 781 1206 776 q 1310 785 1286 785 q 1372 765 1349 785 q 1396 717 1396 744 q 1374 652 1396 669 q 1297 635 1353 635 q 1262 635 1279 635 q 1228 636 1244 635 q 1154 623 1178 636 q 1131 567 1131 610 q 1166 514 1131 528 q 1261 500 1201 500 q 1318 501 1290 500 q 1372 504 1346 503 q 1528 411 1471 504 q 1586 183 1586 318 q 1528 42 1586 83 q 1303 0 1469 0 l 789 -6 q 648 11 692 -6 q 604 90 604 28 q 610 132 604 107 q 644 225 615 157 q 675 307 672 293 q 678 335 678 321 q 663 386 678 367 q 624 406 647 406 q 578 381 599 406 q 551 322 557 356 q 543 260 544 289 q 542 218 542 232 l 542 197 q 534 126 542 163 q 506 60 526 90 q 439 10 485 29 q 355 -6 394 0 q 275 -11 315 -11 q 139 13 199 -11 q 109 52 118 29 q 100 103 100 75 q 100 132 100 117 q 107 165 104 147 q 183 353 110 182 q 349 704 257 525 q 503 963 442 883 q 616 1063 565 1043 q 728 1082 667 1082 q 827 1072 781 1082 q 901 1038 874 1061 z "},"Ø":{"ha":1069,"x_min":28,"x_max":1003,"o":"m 640 563 q 623 749 640 672 q 560 826 606 826 q 515 742 531 826 q 500 557 500 657 q 524 518 500 533 q 576 503 547 503 q 621 521 601 503 q 640 563 640 539 m 254 7 q 140 -3 215 -3 q 28 36 28 -3 q 40 72 28 50 q 72 128 51 94 l 122 203 q 140 435 122 322 q 184 648 157 547 q 248 860 211 749 q 356 1026 285 972 q 513 1081 428 1081 q 651 1074 596 1081 q 757 1040 707 1067 q 804 1083 782 1065 q 839 1106 826 1100 q 863 1111 851 1111 q 884 1104 878 1111 q 890 1088 890 1097 q 839 947 890 1058 q 967 553 931 735 q 1003 150 1003 372 q 781 -7 1003 -7 q 629 -8 732 -7 q 475 -10 526 -10 q 338 -6 383 -10 q 254 7 293 -3 z "},"¥":{"ha":931,"x_min":42,"x_max":885,"o":"m 660 363 q 700 228 690 267 q 710 142 710 190 q 660 22 710 61 q 454 -17 611 -17 q 248 22 297 -17 q 199 146 199 60 q 204 213 199 186 q 243 363 210 239 l 174 363 q 110 376 132 363 q 88 449 88 390 q 124 546 88 504 q 218 588 160 588 l 250 588 q 139 767 236 622 q 42 1007 42 911 q 67 1053 42 1033 q 125 1072 92 1072 q 303 956 213 1072 q 439 840 394 840 q 610 959 506 840 q 775 1078 715 1078 q 850 1049 815 1078 q 885 975 885 1021 q 784 771 885 899 q 658 588 683 643 l 671 588 q 769 544 733 588 q 806 449 806 500 q 784 379 806 396 q 714 363 763 363 l 660 363 z "},"…":{"ha":2083,"x_min":46,"x_max":1915,"o":"m 521 131 q 480 19 521 39 q 278 0 439 0 l 225 0 q 87 19 128 0 q 46 111 46 39 q 99 345 46 299 q 281 392 153 392 q 465 351 410 392 q 521 131 521 311 m 1221 131 q 1180 19 1221 39 q 978 0 1139 0 l 925 0 q 787 19 828 0 q 746 111 746 39 q 799 345 746 299 q 981 392 853 392 q 1165 351 1110 392 q 1221 131 1221 311 m 1915 131 q 1874 19 1915 39 q 1672 0 1833 0 l 1619 0 q 1481 19 1522 0 q 1440 111 1440 39 q 1494 345 1440 299 q 1675 392 1547 392 q 1860 351 1804 392 q 1915 131 1915 311 z "}," ":{"ha":417,"x_min":0,"x_max":0,"o":""},"Œ":{"ha":1472,"x_min":44,"x_max":1419,"o":"m 563 563 q 545 749 563 672 q 482 826 528 826 q 438 742 453 826 q 422 557 422 657 q 446 518 422 533 q 499 503 469 503 q 543 521 524 503 q 563 563 563 539 m 713 1017 q 789 1068 744 1054 q 894 1082 833 1082 q 944 1082 919 1082 q 993 1083 968 1082 q 1135 1063 1089 1083 q 1182 978 1182 1043 q 1065 907 1182 915 q 947 847 947 899 q 967 792 947 807 q 1022 776 986 776 q 1079 781 1039 776 q 1143 785 1119 785 q 1206 765 1182 785 q 1229 717 1229 744 q 1208 652 1229 669 q 1131 635 1186 635 q 1095 635 1113 635 q 1061 636 1078 635 q 988 623 1011 636 q 964 567 964 610 q 999 514 964 528 q 1094 500 1035 500 q 1151 501 1124 500 q 1206 504 1179 503 q 1362 411 1304 504 q 1419 183 1419 318 q 1361 42 1419 83 q 1136 0 1303 0 l 397 -10 q 130 17 215 -10 q 44 171 44 44 q 80 523 44 350 q 161 834 115 696 q 278 1026 207 972 q 435 1081 350 1081 q 597 1069 528 1081 q 713 1017 667 1057 z "},"–":{"ha":1042,"x_min":68,"x_max":976,"o":"m 976 494 q 949 408 976 429 q 861 386 922 386 l 175 386 q 95 403 122 386 q 68 494 68 421 q 113 616 68 564 q 231 668 157 668 l 808 668 q 931 613 886 668 q 976 494 976 557 z "},"—":{"ha":1319,"x_min":68,"x_max":1268,"o":"m 1268 494 q 1241 408 1268 429 q 1153 386 1214 386 l 175 386 q 95 403 122 386 q 68 494 68 421 q 113 616 68 564 q 231 668 157 668 l 1100 668 q 1223 613 1178 668 q 1268 494 1268 557 z "},"“":{"ha":1000,"x_min":22,"x_max":910,"o":"m 910 853 q 815 788 910 789 q 719 761 719 786 q 733 681 719 736 q 747 604 747 625 q 724 578 747 583 q 636 572 701 572 q 508 597 536 572 q 481 696 481 622 q 542 958 481 822 q 675 1094 604 1094 l 761 1097 q 873 1026 836 1097 q 910 853 910 954 m 451 853 q 356 788 451 789 q 261 761 261 786 q 275 681 261 736 q 289 604 289 625 q 266 578 289 583 q 178 572 243 572 q 50 597 78 572 q 22 696 22 622 q 84 958 22 822 q 217 1094 146 1094 l 303 1097 q 415 1026 378 1097 q 451 853 451 954 z "},"”":{"ha":1000,"x_min":24,"x_max":911,"o":"m 911 696 q 883 598 911 624 q 756 572 854 572 q 661 580 678 572 q 644 604 644 588 q 658 685 644 629 q 672 761 672 740 q 658 783 672 778 q 613 788 643 788 l 585 788 q 508 799 535 788 q 482 853 482 810 q 518 1026 482 956 q 631 1097 554 1097 l 717 1094 q 849 958 788 1094 q 911 696 911 822 m 453 696 q 424 598 453 624 q 297 572 396 572 q 203 580 219 572 q 186 604 186 588 q 200 685 186 629 q 214 761 214 740 q 199 783 214 778 q 154 788 185 788 l 126 788 q 50 799 76 788 q 24 853 24 810 q 60 1026 24 956 q 172 1097 96 1097 l 258 1094 q 391 958 329 1094 q 453 696 453 822 z "},"‘":{"ha":514,"x_min":22,"x_max":451,"o":"m 451 853 q 356 788 451 789 q 261 761 261 786 q 275 681 261 736 q 289 604 289 625 q 266 578 289 583 q 178 572 243 572 q 50 597 78 572 q 22 696 22 622 q 84 958 22 822 q 217 1094 146 1094 l 303 1097 q 415 1026 378 1097 q 451 853 451 954 z "},"’":{"ha":514,"x_min":24,"x_max":453,"o":"m 453 696 q 424 598 453 624 q 297 572 396 572 q 203 580 219 572 q 186 604 186 588 q 200 685 186 629 q 214 761 214 740 q 199 783 214 778 q 154 788 185 788 l 126 788 q 50 799 76 788 q 24 853 24 810 q 60 1026 24 956 q 172 1097 96 1097 l 258 1094 q 391 958 329 1094 q 453 696 453 822 z "},"‡":{"ha":1167,"x_min":75,"x_max":1092,"o":"m 1092 150 q 1065 77 1092 106 q 994 49 1038 49 l 175 49 q 106 76 136 49 q 75 144 75 104 l 75 914 q 105 981 75 954 q 175 1008 135 1008 l 994 1008 q 1065 983 1039 1008 q 1092 914 1092 958 l 1092 150 m 701 -182 q 688 -207 701 -197 q 653 -217 674 -217 q 603 -183 617 -217 l 561 -79 l 561 -214 l 506 -214 l 506 -67 q 519 -39 506 -49 q 553 -29 533 -29 q 587 -37 572 -29 q 607 -58 601 -44 l 647 -165 l 647 -33 l 701 -33 l 701 -182 m 1092 -176 q 1043 -214 1092 -207 l 917 -214 l 917 -172 l 1022 -172 q 1032 -162 1028 -172 l 1032 -149 q 1021 -143 1025 -143 l 972 -143 q 933 -133 950 -143 q 917 -104 917 -122 l 917 -58 q 935 -40 917 -46 q 974 -33 953 -33 l 1092 -33 l 1092 -71 l 989 -71 q 974 -79 978 -71 l 974 -92 q 992 -103 981 -103 l 1038 -103 q 1076 -113 1060 -103 q 1092 -137 1092 -124 l 1092 -176 m 899 -71 l 840 -71 l 840 -214 l 782 -214 l 782 -71 l 722 -71 l 722 -33 l 899 -33 l 899 -71 m 469 -172 q 410 -214 469 -214 l 340 -214 q 299 -208 311 -214 q 282 -183 286 -201 l 282 -62 q 340 -33 289 -33 l 410 -33 q 469 -71 469 -33 l 469 -172 m 251 -143 l 138 -143 l 138 -214 l 76 -214 l 76 -69 q 88 -40 76 -47 q 138 -33 99 -33 l 251 -33 l 251 -71 l 154 -71 q 138 -79 138 -71 l 138 -103 l 251 -103 l 251 -143 m 1046 157 l 1046 914 q 1032 949 1046 935 q 994 963 1018 963 l 175 963 q 139 950 154 963 q 124 914 124 938 l 124 153 q 139 115 124 129 q 175 101 154 101 l 994 101 q 1032 117 1018 101 q 1046 157 1046 132 m 413 -162 l 413 -86 q 393 -71 413 -71 l 356 -71 q 338 -86 338 -71 l 338 -161 q 356 -172 338 -172 l 393 -172 q 413 -162 413 -172 m 974 176 l 783 176 l 783 553 l 546 319 l 314 553 l 314 176 l 194 176 l 194 883 l 260 883 l 565 583 l 867 883 l 974 883 l 974 176 m 928 225 l 928 840 l 883 840 l 565 522 l 242 840 l 239 225 l 267 225 l 267 667 l 546 382 l 828 667 l 828 225 l 928 225 z "},"":{"ha":861,"x_min":39,"x_max":814,"o":"m 703 1092 q 614 981 671 1051 q 497 844 557 911 q 415 778 436 778 q 394 795 401 778 q 388 839 388 813 q 415 917 388 885 q 551 999 443 950 q 703 1092 658 1047 m 811 635 q 813 624 811 631 q 814 607 814 618 q 807 547 814 575 q 790 521 799 533 q 765 514 779 514 q 703 572 738 514 q 656 641 668 631 q 630 660 644 651 q 589 668 615 668 q 531 655 557 668 q 469 619 504 642 q 403 597 435 597 q 333 619 360 597 q 283 654 307 642 q 231 667 260 667 q 176 641 192 667 q 161 574 161 615 q 167 522 161 547 q 178 480 172 497 q 216 417 185 463 q 256 347 247 372 q 274 217 265 278 q 313 156 282 156 q 378 201 344 156 q 436 246 413 246 q 492 218 457 246 q 536 190 528 190 q 562 201 544 190 q 604 242 579 211 q 635 290 629 274 q 653 306 642 306 q 705 288 674 306 q 738 254 736 269 q 728 229 738 246 q 652 142 679 175 q 613 85 625 108 q 590 47 601 63 q 564 26 578 32 q 540 19 550 19 q 488 49 519 19 q 439 83 456 78 q 410 89 422 89 q 382 79 392 89 q 322 26 365 56 q 249 0 278 -4 q 179 106 194 7 q 151 288 164 206 q 104 372 142 310 q 53 475 67 435 q 39 560 39 515 q 61 675 39 622 q 128 749 83 728 q 226 769 172 769 q 260 767 250 769 q 311 744 271 765 q 404 724 351 724 q 481 747 449 724 q 547 778 514 769 q 617 788 579 788 q 714 769 667 788 q 775 713 749 753 q 811 635 801 674 z "},"¦":{"ha":694,"x_min":35,"x_max":660,"o":"m 660 110 l 35 110 l 35 735 l 660 735 l 660 110 m 606 165 l 606 681 l 90 681 l 90 165 l 606 165 z "},"−":{"ha":778,"x_min":68,"x_max":718,"o":"m 718 494 q 691 408 718 429 q 603 386 664 386 l 175 386 q 95 403 122 386 q 68 494 68 421 q 113 616 68 564 q 231 668 157 668 l 550 668 q 673 613 628 668 q 718 494 718 557 z "}}}
